<svg width="1920" height="601" viewBox="0 0 1920 601" fill="none" xmlns="http://www.w3.org/2000/svg">
<g clip-path="url(#clip0_4781_27712)">
<rect width="1920" height="601" transform="matrix(1 0 0 -1 0 601)" fill="#E5FFC4"/>
<path fill-rule="evenodd" clip-rule="evenodd" d="M-0.0117188 601H1920.03V591C1920.03 591 1440.51 491 956.899 491C476.216 491 -0.0117188 591 -0.0117188 591V601Z" fill="white"/>
<path fill-rule="evenodd" clip-rule="evenodd" d="M1543.98 423.34C1565.52 414.426 1589.5 402.78 1594.77 382.504C1597.66 371.918 1593.92 359.926 1585.52 351.938C1582.52 349.188 1578.97 346.757 1574.64 345.815C1571.18 345.119 1567.2 345.609 1563.53 346.374C1548.84 349.722 1536.52 360.202 1532.3 372.885C1526.29 389.718 1534.34 407.874 1543.98 423.34ZM599.141 503.996C576.088 500.536 557.493 487.477 539.001 474.492C534.061 471.022 529.128 467.558 524.119 464.284C500.364 448.753 467.802 437.568 442.213 450.841C425.506 459.6 417.318 475.957 409.163 492.245C400.67 509.212 392.212 526.105 374.204 534.263C364.533 538.711 353.542 539.619 342.517 540.53L342.516 540.53L342.516 540.53L342.516 540.53C336.475 541.029 330.424 541.529 324.573 542.613C274.425 551.546 244.211 608.816 268.609 648.008C377.433 620.236 490.944 609.51 603.559 602.731C735.219 594.778 825.82 594.198 941.004 593.461L941.005 593.461L941.006 593.461C970.383 593.273 1001.36 593.075 1035.03 592.741L1035.38 592.738C1102.51 592.145 1169.92 591.549 1236.83 597.367C1293.87 602.396 1350.27 612.193 1406.64 621.984C1483.56 635.347 1560.43 648.7 1638.78 649.907C1661.28 629.542 1655.14 594.449 1634.64 572.901C1615.92 552.951 1588.26 541.564 1561.45 530.52C1559.28 529.628 1557.12 528.739 1554.97 527.847C1526.2 515.914 1496.5 501.797 1480.51 477.514C1473.07 466.375 1469.19 453.76 1465.29 441.103L1465.29 441.102L1465.29 441.101C1462.68 432.612 1460.06 424.103 1456.36 416.009C1447.14 395.845 1427 376.229 1402.49 378.298C1376.21 380.586 1362.56 403.616 1349.05 426.413C1335.27 449.672 1321.63 472.689 1294.86 473.191C1279.65 473.476 1267.09 465.732 1254.4 457.898C1244.97 452.081 1235.46 446.214 1224.72 443.547C1199.51 437.288 1172.52 449.795 1152.79 465.283C1145.77 470.788 1139.2 476.8 1132.62 482.814C1120.69 493.719 1108.76 504.632 1094.17 512.552C1063.29 529.436 1025.36 531.065 989.306 532.042C956.398 533 939.697 533.213 922.997 533.425C906.297 533.638 889.596 533.851 856.688 534.809C837.85 535.477 817.62 535.658 802.385 526.389C794.609 521.754 788.888 515.134 783.157 508.504C778.082 502.632 773.001 496.752 766.479 492.236C740.398 474.416 707.983 483.632 674.389 493.182C649.246 500.331 623.443 507.666 599.141 503.996ZM1721.13 418.562C1727.53 429.565 1720.94 443.836 1709.63 451.374C1698.33 459.202 1683.55 461.687 1669.3 463.275C1641.69 466.406 1613.63 466.365 1586.31 463.674C1592.23 447.695 1598.73 431.687 1610.32 418.036C1621.91 404.386 1639.49 393.629 1659.06 393.226C1673.07 392.811 1686.77 397.93 1699.31 403.107L1700.06 403.461C1708.24 407.295 1717.09 411.441 1721.13 418.562ZM180.287 487.863C176.042 496.762 182.445 507.443 191.789 512.474C201.134 517.506 212.908 518.361 224.36 518.654C246.08 519.01 267.962 516.751 289.45 512.485C283.574 500.62 277.099 488.495 266.937 478.872C256.775 469.249 242.049 462.172 226.866 463.515C215.764 464.363 205.744 469.21 196.322 474.316C189.754 477.832 182.907 481.65 180.287 487.863ZM319.767 477.946C301.646 472.666 281.046 465.447 275.201 449.822C272.101 441.428 273.987 431.605 280.193 424.807C282.449 422.335 285.017 420.142 288.535 419.081C291.474 418.343 294.739 418.179 297.737 418.618C309.715 420.079 320.489 427.203 325.147 436.992C331.453 449.941 326.255 464.943 319.767 477.946Z" fill="white"/>
<path fill-rule="evenodd" clip-rule="evenodd" d="M164.365 205.61C163.548 206.221 162.693 206.78 161.875 207.388C160.625 208.317 159.431 209.332 158.138 210.196C156.714 211.148 157.161 211.226 155.543 210.385C154.685 209.71 153.866 208.977 152.956 208.374C151.677 207.528 150.336 206.776 149.015 205.992C148.147 205.478 148.067 205.031 148.897 204.476C150.531 203.382 152.217 202.366 153.883 201.324C154.635 200.854 155.4 200.403 156.148 199.927C157.128 199.302 158.486 199.872 159.52 200.592C160.294 201.083 161.095 201.533 161.918 201.939C162.397 202.2 162.901 202.421 163.367 202.705C163.767 202.965 164.154 203.245 164.526 203.544C164.687 203.671 164.813 203.836 164.896 204.023C164.978 204.211 165.012 204.416 164.996 204.619C164.98 204.823 164.915 205.02 164.804 205.193C164.694 205.366 164.543 205.509 164.365 205.61V205.61ZM128.933 162.29C127.888 162.611 126.815 162.863 125.803 163.266C124.377 163.829 122.991 164.502 121.598 165.137C120.678 165.555 120.263 165.368 120.274 164.373C120.298 162.414 120.415 160.458 120.499 158.503C120.537 157.618 120.599 156.739 120.629 155.857C120.669 154.699 121.913 153.911 123.095 153.474C123.942 153.12 124.769 152.72 125.572 152.276C126.057 152.035 126.53 151.745 127.027 151.525C127.463 151.334 127.926 151.203 128.38 151.053C128.577 150.994 128.785 150.984 128.987 151.024C129.188 151.063 129.377 151.151 129.537 151.28C129.696 151.409 129.821 151.575 129.902 151.763C129.982 151.951 130.015 152.155 129.997 152.359C130.039 153.374 130.017 154.392 130.055 155.407C130.113 156.958 130.275 158.511 130.255 160.06C130.23 161.764 130.549 161.444 128.933 162.29ZM125.687 193.032L119.433 202.382C119.241 202.669 119.123 202.997 119.087 203.338C119.05 203.68 119.098 204.025 119.226 204.345L123.392 214.79C123.539 215.156 123.581 215.557 123.512 215.946C123.443 216.335 123.265 216.697 123 216.991C122.735 217.285 122.393 217.499 122.011 217.61C121.63 217.72 121.225 217.723 120.843 217.616L110.007 214.568C109.676 214.475 109.326 214.463 108.989 214.535C108.652 214.606 108.338 214.758 108.074 214.978L99.4143 222.17C99.1091 222.422 98.7391 222.583 98.3462 222.637C97.9532 222.69 97.5531 222.633 97.1911 222.472C96.8291 222.311 96.5198 222.052 96.2982 221.725C96.0765 221.398 95.9515 221.016 95.9372 220.622L95.4924 209.383C95.4794 209.041 95.3828 208.706 95.2109 208.408C95.0391 208.11 94.7972 207.859 94.5059 207.675L84.9875 201.671C84.6529 201.459 84.3844 201.158 84.212 200.803C84.0396 200.447 83.9703 200.051 84.0117 199.658C84.0531 199.266 84.2036 198.893 84.4464 198.581C84.6892 198.268 85.0146 198.03 85.3862 197.891L95.9485 193.994C96.2721 193.875 96.5618 193.679 96.7923 193.424C97.0228 193.169 97.1872 192.861 97.2714 192.528L100.048 181.632C100.144 181.249 100.346 180.901 100.632 180.626C100.917 180.352 101.274 180.163 101.663 180.08C102.051 179.998 102.454 180.025 102.828 180.16C103.201 180.294 103.529 180.53 103.774 180.841L110.745 189.668C110.957 189.938 111.233 190.152 111.547 190.292C111.862 190.433 112.206 190.494 112.55 190.472L123.785 189.74C124.181 189.717 124.575 189.803 124.924 189.99C125.274 190.178 125.563 190.458 125.761 190.8C125.959 191.142 126.056 191.532 126.043 191.926C126.03 192.321 125.907 192.703 125.687 193.032V193.032ZM115.045 240.709C115.46 239.239 115.768 237.74 116.112 236.251C116.339 235.271 116.729 235.059 117.487 235.675C118.977 236.891 120.41 238.179 121.863 239.44C122.518 240.009 123.157 240.596 123.819 241.159C124.684 241.898 124.546 243.358 124.181 244.557C123.949 245.44 123.764 246.335 123.627 247.238C123.523 247.772 123.465 248.318 123.337 248.846C123.224 249.305 123.05 249.751 122.894 250.199C122.827 250.387 122.714 250.556 122.565 250.69C122.416 250.824 122.236 250.919 122.041 250.966C121.846 251.013 121.642 251.011 121.448 250.96C121.254 250.909 121.075 250.81 120.929 250.673C120.125 250.086 119.357 249.446 118.554 248.856C117.328 247.954 116.04 247.133 114.861 246.171C113.567 245.112 113.619 245.558 113.932 243.77C114.31 242.751 114.752 241.751 115.045 240.709Z" fill="white" fill-opacity="0.5"/>
<path fill-rule="evenodd" clip-rule="evenodd" d="M1821.77 492.447C1821.35 493.022 1820.95 493.623 1820.53 494.199C1819.88 495.079 1819.17 495.919 1818.56 496.829C1817.9 497.831 1817.84 497.517 1818.43 498.655C1818.9 499.259 1819.42 499.835 1819.84 500.476C1820.43 501.375 1820.96 502.319 1821.51 503.248C1821.87 503.86 1822.18 503.916 1822.57 503.332C1823.33 502.182 1824.04 500.996 1824.77 499.823C1825.1 499.294 1825.42 498.756 1825.75 498.23C1826.19 497.54 1825.79 496.584 1825.29 495.857C1824.94 495.312 1824.63 494.748 1824.34 494.169C1824.16 493.831 1824.01 493.477 1823.81 493.149C1823.62 492.867 1823.43 492.595 1823.22 492.334C1823.13 492.221 1823.01 492.131 1822.88 492.074C1822.75 492.016 1822.61 491.991 1822.47 492.003C1822.32 492.014 1822.19 492.06 1822.06 492.138C1821.94 492.215 1821.84 492.321 1821.77 492.447V492.447ZM1852.1 517.38C1851.87 518.116 1851.7 518.871 1851.41 519.583C1851.02 520.587 1850.55 521.562 1850.1 522.542C1849.81 523.19 1849.94 523.482 1850.64 523.474C1852.01 523.457 1853.38 523.375 1854.75 523.315C1855.37 523.289 1855.98 523.245 1856.6 523.224C1857.41 523.196 1857.96 522.321 1858.27 521.489C1858.52 520.893 1858.8 520.311 1859.11 519.746C1859.28 519.404 1859.48 519.072 1859.63 518.722C1859.77 518.415 1859.86 518.089 1859.96 517.77C1860 517.631 1860.01 517.485 1859.98 517.343C1859.96 517.201 1859.89 517.068 1859.8 516.956C1859.71 516.844 1859.6 516.755 1859.47 516.699C1859.33 516.642 1859.19 516.619 1859.05 516.632C1858.34 516.602 1857.63 516.618 1856.92 516.591C1855.83 516.55 1854.74 516.436 1853.66 516.45C1852.47 516.468 1852.69 516.243 1852.1 517.38ZM1830.58 519.665L1824.03 524.066C1823.83 524.201 1823.6 524.284 1823.36 524.309C1823.12 524.335 1822.88 524.301 1822.66 524.212L1815.35 521.28C1815.09 521.176 1814.81 521.147 1814.54 521.195C1814.27 521.244 1814.01 521.369 1813.81 521.555C1813.6 521.742 1813.45 521.983 1813.37 522.251C1813.3 522.52 1813.29 522.804 1813.37 523.074L1815.5 530.699C1815.57 530.932 1815.58 531.178 1815.53 531.415C1815.48 531.652 1815.37 531.873 1815.22 532.059L1810.18 538.153C1810 538.368 1809.89 538.628 1809.85 538.905C1809.82 539.181 1809.86 539.463 1809.97 539.717C1810.08 539.972 1810.26 540.19 1810.49 540.346C1810.72 540.502 1810.99 540.59 1811.26 540.6L1819.13 540.913C1819.37 540.922 1819.61 540.99 1819.81 541.111C1820.02 541.232 1820.2 541.402 1820.33 541.607L1824.53 548.305C1824.68 548.541 1824.89 548.73 1825.14 548.851C1825.39 548.972 1825.66 549.021 1825.94 548.992C1826.21 548.963 1826.48 548.857 1826.69 548.686C1826.91 548.515 1827.08 548.286 1827.18 548.025L1829.9 540.592C1829.99 540.364 1830.12 540.16 1830.3 539.998C1830.48 539.836 1830.7 539.72 1830.93 539.661L1838.56 537.707C1838.83 537.639 1839.07 537.497 1839.26 537.296C1839.45 537.095 1839.59 536.844 1839.64 536.571C1839.7 536.298 1839.68 536.014 1839.59 535.751C1839.49 535.488 1839.33 535.258 1839.11 535.085L1832.93 530.18C1832.74 530.03 1832.59 529.836 1832.5 529.615C1832.4 529.393 1832.35 529.151 1832.37 528.909L1832.88 521.003C1832.9 520.725 1832.84 520.447 1832.71 520.201C1832.58 519.956 1832.38 519.752 1832.14 519.613C1831.9 519.474 1831.63 519.405 1831.35 519.414C1831.08 519.423 1830.81 519.51 1830.58 519.665V519.665ZM1797.2 527.154C1798.23 526.862 1799.28 526.645 1800.32 526.402C1801.01 526.243 1801.16 525.968 1800.73 525.435C1799.88 524.386 1798.97 523.378 1798.09 522.355C1797.69 521.894 1797.28 521.445 1796.89 520.979C1796.37 520.371 1795.35 520.467 1794.51 520.725C1793.89 520.888 1793.27 521.018 1792.63 521.114C1792.26 521.187 1791.88 521.228 1791.51 521.319C1791.19 521.398 1790.87 521.52 1790.56 521.63C1790.43 521.677 1790.31 521.757 1790.22 521.861C1790.12 521.966 1790.06 522.093 1790.02 522.23C1789.99 522.368 1789.99 522.511 1790.03 522.648C1790.06 522.784 1790.13 522.91 1790.23 523.013C1790.64 523.579 1791.09 524.119 1791.5 524.684C1792.13 525.547 1792.71 526.454 1793.38 527.283C1794.12 528.194 1793.81 528.157 1795.06 527.937C1795.77 527.671 1796.47 527.359 1797.2 527.154Z" fill="#E4D3F7"/>
<path fill-rule="evenodd" clip-rule="evenodd" d="M1801.72 118.684C1802.33 118.754 1802.94 118.787 1803.56 118.855C1804.49 118.96 1805.42 119.126 1806.36 119.184C1807.39 119.248 1807.18 119.423 1807.77 118.497C1808.02 117.887 1808.23 117.258 1808.52 116.67C1808.94 115.843 1809.42 115.047 1809.87 114.24C1810.17 113.71 1810.08 113.454 1809.48 113.416C1808.3 113.342 1807.11 113.324 1805.92 113.287C1805.39 113.27 1804.85 113.267 1804.32 113.246C1803.62 113.217 1803.08 113.924 1802.75 114.611C1802.49 115.101 1802.21 115.576 1801.9 116.036C1801.73 116.317 1801.53 116.584 1801.37 116.873C1801.24 117.129 1801.12 117.391 1801.01 117.659C1800.97 117.774 1800.95 117.898 1800.96 118.02C1800.98 118.142 1801.02 118.259 1801.09 118.36C1801.16 118.461 1801.25 118.544 1801.36 118.6C1801.47 118.657 1801.59 118.686 1801.72 118.684V118.684ZM1807.28 85.4572C1807.93 85.3081 1808.57 85.1145 1809.22 85.0176C1810.13 84.8787 1811.06 84.8095 1811.98 84.7181C1812.59 84.6571 1812.75 84.4343 1812.45 83.9208C1811.85 82.91 1811.2 81.9288 1810.57 80.9385C1810.28 80.4903 1809.99 80.0522 1809.7 79.6031C1809.34 79.0134 1808.45 78.9801 1807.7 79.1103C1807.15 79.1827 1806.6 79.2251 1806.04 79.2373C1805.71 79.2587 1805.38 79.251 1805.05 79.2873C1804.77 79.3197 1804.49 79.3919 1804.2 79.4512C1804.08 79.4801 1803.97 79.5379 1803.88 79.6194C1803.78 79.7009 1803.71 79.8037 1803.67 79.9189C1803.62 80.0341 1803.6 80.1581 1803.62 80.2801C1803.63 80.4022 1803.68 80.5185 1803.75 80.619C1804.03 81.159 1804.35 81.6812 1804.63 82.22C1805.07 83.0436 1805.45 83.8994 1805.92 84.6983C1806.45 85.5762 1806.18 85.5063 1807.28 85.4572ZM1818.21 100.449L1824.29 103.416C1824.48 103.507 1824.64 103.642 1824.76 103.808C1824.88 103.975 1824.96 104.169 1824.99 104.373L1825.94 111.061C1825.97 111.296 1826.07 111.517 1826.22 111.698C1826.37 111.879 1826.58 112.014 1826.8 112.086C1827.03 112.159 1827.27 112.167 1827.51 112.109C1827.74 112.051 1827.95 111.93 1828.12 111.759L1832.88 106.897C1833.03 106.748 1833.21 106.637 1833.41 106.572C1833.6 106.507 1833.81 106.491 1834.02 106.526L1840.71 107.643C1840.95 107.682 1841.19 107.654 1841.41 107.563C1841.63 107.472 1841.83 107.321 1841.97 107.128C1842.11 106.935 1842.19 106.707 1842.21 106.47C1842.23 106.233 1842.18 105.996 1842.07 105.787L1838.93 99.813C1838.84 99.6309 1838.79 99.4277 1838.79 99.2211C1838.79 99.0145 1838.84 98.8105 1838.94 98.6267L1842.12 92.628C1842.23 92.4166 1842.28 92.1791 1842.27 91.9423C1842.25 91.7055 1842.17 91.4786 1842.03 91.2872C1841.89 91.0958 1841.7 90.9474 1841.48 90.8586C1841.26 90.7698 1841.01 90.7442 1840.78 90.7847L1834.08 91.9545C1833.87 91.9905 1833.66 91.9765 1833.46 91.9135C1833.27 91.8505 1833.09 91.7404 1832.94 91.5929L1828.22 86.7709C1828.05 86.601 1827.84 86.4811 1827.61 86.4248C1827.38 86.3686 1827.14 86.3783 1826.91 86.4529C1826.68 86.5275 1826.48 86.6639 1826.32 86.8466C1826.17 87.0294 1826.07 87.2511 1826.03 87.4866L1825.03 94.1819C1825 94.3865 1824.92 94.5812 1824.79 94.7492C1824.67 94.9172 1824.51 95.0533 1824.32 95.1459L1818.22 98.1637C1818 98.2711 1817.82 98.4356 1817.69 98.6384C1817.57 98.8413 1817.5 99.0746 1817.5 99.3121C1817.5 99.5496 1817.56 99.7819 1817.69 99.9827C1817.81 100.184 1817.99 100.345 1818.21 100.449V100.449ZM1838.09 122.004C1837.43 121.366 1836.82 120.68 1836.19 120.011C1835.78 119.57 1835.51 119.578 1835.3 120.127C1834.88 121.21 1834.52 122.312 1834.13 123.408C1833.96 123.901 1833.8 124.399 1833.62 124.892C1833.39 125.538 1833.9 126.255 1834.45 126.767C1834.84 127.156 1835.21 127.565 1835.55 127.992C1835.76 128.239 1835.96 128.505 1836.18 128.74C1836.38 128.945 1836.6 129.124 1836.82 129.309C1836.91 129.387 1837.02 129.441 1837.14 129.465C1837.26 129.49 1837.38 129.485 1837.5 129.45C1837.61 129.416 1837.72 129.353 1837.81 129.268C1837.89 129.182 1837.96 129.077 1837.99 128.962C1838.24 128.413 1838.45 127.848 1838.69 127.299C1839.06 126.459 1839.49 125.643 1839.82 124.787C1840.18 123.845 1840.29 124.093 1839.59 123.258C1839.08 122.843 1838.55 122.457 1838.09 122.004Z" fill="white"/>
<path fill-rule="evenodd" clip-rule="evenodd" d="M1607.2 243.061C1600.91 242.932 1595.97 238.987 1596.04 234.041C1596.11 230.103 1602.67 224.043 1606.98 223.947C1612.11 223.834 1615.15 227.884 1615.05 235.033C1615.23 240.067 1613.01 243.172 1607.2 243.061ZM1791.93 401.998C1786.89 402.126 1779.6 396.38 1779.64 392.571C1779.68 388.547 1786.53 381.244 1790.32 381.193C1795.01 381.128 1799.92 387.795 1799.99 395.125C1800.15 399.837 1796.8 401.87 1791.93 401.998ZM964.897 69.837C958.255 69.8023 953.082 65.3211 953.439 59.5407C953.743 54.6106 956.931 51.7518 961.626 51.2285C966.465 50.6911 974.444 57.572 974.543 61.8018C974.651 66.4754 970.581 69.8665 964.897 69.837ZM1705.46 83.8127C1699.16 83.6844 1694.22 79.7393 1694.3 74.7925C1694.36 70.8538 1700.93 64.7887 1705.24 64.6989C1710.37 64.5847 1713.41 68.6376 1713.3 75.7839C1713.48 80.8179 1711.26 83.9243 1705.46 83.8127ZM599.554 41.1174C593.255 40.9891 588.312 37.0427 588.39 32.0972C588.453 28.1598 595.021 22.0934 599.328 22.0023C604.465 21.8894 607.504 25.941 607.396 33.0887C607.576 38.1227 605.353 41.229 599.554 41.1174ZM998.955 418.375C992.662 418.247 987.713 414.303 987.791 409.357C987.854 405.42 994.422 399.354 998.729 399.262C1003.87 399.15 1006.9 403.201 1006.8 410.348C1006.98 415.382 1004.75 418.487 998.955 418.374V418.375ZM232.924 94.4578C229.76 94.4348 225.774 91.0116 225.892 88.4222C226.054 84.8644 229.735 81.6247 233.623 81.617C237.06 81.617 240.02 84.0538 240.017 86.8818C240.016 90.2395 236.053 94.472 232.924 94.4514V94.4578ZM159.438 384.515C152.64 384.419 147.985 380.539 148 375.337C148.014 370.436 153.42 364.564 157.375 366.562C161.998 368.897 167.314 373.411 168.548 377.987C170.007 383.384 163.393 383.836 159.438 384.515Z" fill="#FFFFFE"/>
<path d="M710.821 451.997C710.743 456.943 715.693 460.888 721.985 461.016C727.784 461.129 730.007 458.024 729.827 452.989C729.935 445.843 726.896 441.792 721.759 441.904C717.452 441.994 710.884 448.059 710.821 451.997Z" fill="#FFFFFE"/>
</g>
<defs>
<clipPath id="clip0_4781_27712">
<rect width="1920" height="601" fill="white" transform="matrix(1 0 0 -1 0 601)"/>
</clipPath>
</defs>
</svg>
